<svg width="306" height="306" viewBox="0 0 306 306" fill="none" xmlns="http://www.w3.org/2000/svg">
<path d="M186.68 116.724C186.68 116.724 191.708 118.019 198.126 121.596M130.145 136.892C130.145 136.892 128.595 133.961 127.194 133.299C125.763 132.623 123.988 133.655 122.446 133.299C118.644 132.421 115.241 130.222 115.241 130.222M137.691 139.617C137.691 139.617 142.901 137.277 145.647 137.435C149.421 137.653 150.971 140.823 154.73 141.232C162.447 142.071 177.698 137.382 177.698 137.382M62.2443 191.403C62.2443 191.403 76.9676 198.843 83.8386 203.007C85.2798 203.881 86.8973 205.027 88.4811 206.226M156.256 238.134C156.256 238.134 159.138 243.495 158.058 246.023C157.556 247.197 153.703 254.574 150.233 257.743C146.468 261.182 141.937 263.808 136.949 264.867C130.77 266.179 128.583 267.9 118.02 263.977C109.705 260.888 109.278 241.242 101.941 236.823C97.1495 233.938 89.9612 234.663 84.3867 236.769C78.8123 238.875 71.1475 243.093 72.7419 246.461C72.5398 247.52 75.7907 265.385 81.8471 269.162C82.5143 271.014 113.156 259.41 113.156 259.41M122.592 115.503C122.592 115.503 121.733 115.226 119.867 115.116M72.3836 244.64L69.1399 244.39C69.1399 244.39 51.7821 239.833 43.9164 235.68C38.9846 233.076 31.3873 229.49 30.488 225.699C28.6192 217.824 33.9358 199.931 33.9358 199.931C33.9358 199.931 32.5098 187.789 37.928 176.704C40.4063 171.634 43.6085 167.205 46.609 163.676M179.623 172.669C179.623 172.669 173.678 188.188 175.855 199.766C176.452 202.938 177.326 205.878 178.347 208.556M245.246 191.783C247.938 197.418 249.996 202.052 249.675 209.72C249.282 219.12 245.108 236.864 240.316 245.68C235.869 253.861 236.839 253.442 235.44 258.512C234.041 263.582 235.09 268.854 233.002 270.958C230.936 273.039 229.27 271.713 219.401 272.755C209.531 273.796 191.533 275.484 177.185 274.294C162.837 273.105 143.946 270.531 134.147 265.559M92.0044 140.774C92.0044 140.774 84.3305 149.591 81.7517 156.834C80.358 160.748 78.4504 171.216 79.3707 180.088C79.3949 180.321 79.4227 180.557 79.4541 180.796M132.66 210.009C132.66 210.009 143.771 213.818 156.263 210.876C163.668 209.132 175.774 199.705 175.774 199.705M211.766 154.247L223.729 163.312L223.911 163.443L218.348 173.794L198.962 157.803L208.5 143.179L218.44 141.348C218.44 141.348 214.341 134.923 211.407 131.96C206.84 127.348 203.637 125.087 203.637 125.087L196.916 126.444L184.8 146.075L176.396 139.363C176.396 139.363 167.328 143.073 162.37 144.683C152.532 147.878 143.72 149.37 143.72 149.37L148.762 153.281L161.868 151.03L175.276 163.429L162.408 185.015L153.684 177.142L153.942 175.419L162.025 164.394L134.285 169.195L137.277 186.572L153.053 200.833L175.472 197.085L175.406 195.474L176.693 195.248L189.59 173.66L208.986 189.645L232.486 185.536L242.537 166.795L242.368 162.904C242.368 162.904 240.236 158.107 238.755 155.983C237.344 153.958 233.613 150.449 233.613 150.449L211.766 154.247ZM96.4584 212.793C96.4584 212.793 119.694 221.136 130.59 224.983C134.53 226.373 139.499 225.558 143.368 227.133C148.731 229.316 156.162 237.996 156.162 237.996L189.118 226.048C189.118 226.048 182.584 219.791 178.362 208.569C178.362 208.569 201.205 194.045 215.038 191.916C229.579 189.679 245.251 191.785 245.251 191.785C244.82 190.757 244.307 189.697 243.78 188.58C243.314 181.33 247.6 171.845 240.274 158.633C235.82 150.599 228.834 146.044 219.914 143.285C215.742 137.832 213.65 133.11 206.826 127.502C203.861 125.066 200.995 123.235 198.112 121.574C198.112 121.574 189.04 134.532 174.015 140.404C151.3 149.28 134.949 153.259 123.122 146.236C107.306 136.846 119.883 115.122 119.883 115.122C118.394 114.937 116.227 115.046 113.358 115.4C103.971 116.557 101.705 121.348 101.705 121.348C101.705 121.348 96.7064 119.67 93.1259 119.932C83.6317 120.627 75.8019 123.308 68.7644 129.719C63.9241 134.128 59.3507 142.279 57.4544 148.546C56.8577 150.518 55.6709 154.705 55.6709 154.705C55.6709 154.705 51.1925 157.955 46.6127 163.649C46.6127 163.649 55.7693 164.778 62.1444 168.459C68.6794 172.232 79.461 180.874 79.461 180.874C80.79 190.965 88.465 206.194 88.465 206.194C92.3745 209.236 96.4584 212.793 96.4584 212.793ZM205.964 273.969C205.964 273.969 205.692 279.193 206.146 281.772C206.675 284.783 209.593 289.144 209.523 292.188C209.523 292.188 187.519 301.954 156.944 302.659C124.321 303.412 103.798 294.48 103.798 294.48C105.148 291.077 107.907 286.405 107.907 279.798C107.907 270.213 104.601 262.623 104.601 262.623L113.052 259.335C113.052 259.335 114.364 261.218 116.652 263.473C116.975 263.466 122.975 266.182 127.335 266.371C129.646 266.472 132.183 266.128 134.231 265.59C143.512 270.278 158.028 271.991 167.757 273.338C185.412 275.937 205.964 273.969 205.964 273.969ZM210.645 71.1749C210.645 101.585 185.992 126.237 155.583 126.237C125.173 126.237 100.52 101.585 100.52 71.1749C100.52 40.765 125.173 16.1128 155.583 16.1128C185.992 16.1128 210.645 40.765 210.645 71.1749Z" 
stroke="#0D0D0D" stroke-width="5" stroke-linecap="round" stroke-linejoin="round"/>
<path d="M303 153C303 172.698 299.12 192.204 291.582 210.402C284.044 228.601 272.995 245.137 259.066 259.066C245.137 272.995 228.601 284.044 210.403 291.582C192.204 299.12 172.698 303 153 303C133.302 303 113.796 299.12 95.5975 291.582C77.3986 284.044 60.8628 272.995 46.934 259.066C33.0052 245.137 21.9563 228.601 14.4181 210.402C6.87985 192.204 3 172.698 3 153C3 133.302 6.87984 113.796 14.4181 95.5974C21.9563 77.3986 33.0052 60.8627 46.934 46.9339C60.8628 33.0052 77.3987 21.9562 95.5975 14.418C113.796 6.87982 133.302 3 153 3C192.782 3.00001 230.936 18.8035 259.066 46.9339C287.196 75.0644 303 113.217 303 153Z" 
stroke="#0D0D0D" stroke-width="5" stroke-linecap="round" stroke-linejoin="round"/>
</svg>
