<?xml version="1.0" encoding="UTF-8"?>
<svg version="1.1" viewBox="0 0 510.82 510.82" xml:space="preserve" xmlns="http://www.w3.org/2000/svg"><g transform="translate(6254.9 1860.8)">
<g transform="translate(37.2 -34.339)" fill="#fff" stroke="#000" stroke-linecap="round" stroke-linejoin="round" stroke-width="34.016">
<path d="m-6116.1-1809.4h158.93c88.05 0 158.93 70.885 158.93 158.93v158.93c0 88.05-70.885 158.93-158.93 158.93h-158.93c-88.05 0-158.93-70.885-158.93-158.93v-158.93c0-88.05 70.885-158.93 158.93-158.93z" stop-color="#000000"/><path d="m-5904.5-1652.4c14.297-14.471 13.708-37.365-1.3219-51.136-7.2147-6.6135-16.861-10.196-26.818-9.9583-9.9576 0.2372-19.408 4.2758-26.274 11.226l-76.446 77.671-79.152-77.671c-6.8661-6.9494-16.316-10.987-26.272-11.226-9.9576-0.2373-19.606 3.3445-26.82 9.9583-15.023 13.771-15.613 36.665-1.3219 51.136l80.054 80.992-80.054 81.695c-14.297 14.471-13.708 37.366 1.3219 51.138 15.024 13.772 38.796 13.204 53.093-1.2674l77.792-78.435 77.806 78.435c14.297 14.471 38.067 15.039 53.091 1.2674 15.026-13.771 15.615-36.666 1.3219-51.138l-79.961-80.742z" 
color="#000000"/></g></g></svg>
